<svg viewBox="0 0 24 24" fill="#99CC66" width="1em" xmlns="http://www.w3.org/2000/svg" height="1em"><path d="M21.7,3.6"></path><path d="M33.2-10.5"></path><path d="M5.6,22.7c0-0.5-0.4-1-0.9-1l-0.3,0c-0.7-0.1-1.4-0.6-1.4-1.5V3.8c0-0.6,0.4-1.2,1-1.4l0.1,0l0.5,0c0.5,0,0.9-0.5,0.9-1 c0-0.5-0.4-1-0.9-1l-0.1,0c-1.9,0-3.5,1.6-3.5,3.5v16.5c0,1.9,1.6,3.5,3.5,3.5h0.1C5.2,23.8,5.6,23.2,5.6,22.7z"></path><path d="M20.7,0H8.9c-1.6,0-3,1.4-3,3v18c0,1.6,1.3,3,3,3h11.5c1.6,0,3-1.3,3-3V3.7V3.3v0V3.2v0C23.6,1.4,22.4,0,20.7,0z M21.4,21 c0,0.5-0.4,1-1,1H8.9c-0.5,0-1-0.4-1-1v-8H9c0.5,2.7,2.8,4.7,5.6,4.7s5.2-2,5.6-4.7h1.1V21z M15.6,13.8v-0.6L12,11.7 c-0.3-0.1-0.4-0.3-0.4-0.6V9.4c0-0.5,0.3-0.9,0.8-0.9h1.2V7.8h2v0.7h1.2c0.5,0,0.8,0.3,0.8,0.8v1.4h-2V10h-1.9v0.6l3.6,1.5 c0.3,0.1,0.4,0.3,0.4,0.6v1.7c0,0.5-0.3,0.9-0.8,0.9h-1.2V16h-2v-0.7h-1.2c-0.5,0-0.8-0.3-0.8-0.9v-1.5h2v0.9H15.6z M21.4,3.2 L21.4,3.2v0.1v0.1V11h-1.1c-0.5-2.7-2.8-4.7-5.6-4.7S9.5,8.3,9,11H7.9V3c0-0.5,0.5-1,1-1h11.5c0.6,0,1,0.4,1,1V3.2z"></path></svg>