<svg viewBox="0 0 24 24" fill="#1AEAD3" xmlns="http://www.w3.org/2000/svg" width="1em" height="1em"><path d="M8 24c-1.7 0-3-1.3-3-3s1.3-3 3-3 3 1.3 3 3-1.3 3-3 3zm0-4c-.6 0-1 .4-1 1s.4 1 1 1 1-.4 1-1-.4-1-1-1zM20 24c-1.7 0-3-1.3-3-3s1.3-3 3-3 3 1.3 3 3-1.3 3-3 3zm0-4c-.6 0-1 .4-1 1s.4 1 1 1 1-.4 1-1-.4-1-1-1zM19.4 17c-.1 0-.1 0 0 0H8.8c-1.5 0-2.8-1.1-3-2.6L4.2 2.9c0-.5-.5-.9-1-.9H1c-.6 0-1-.4-1-1s.4-1 1-1h2.2c1.5 0 2.8 1.1 3 2.6L6.5 5H23c.3 0 .6.1.8.4.2.2.2.5.2.8l-1.7 8.4C22 16 20.8 17 19.4 17zm-.1-2c.5 0 .9-.3 1-.8L21.8 7h-15l.9 7.1c.1.5.5.9 1 .9h10.6z"></path></svg>